<svg width="13" height="11" viewBox="0 0 13 11" fill="none" xmlns="http://www.w3.org/2000/svg">
<path d="M11.0012 1.34457C12.4628 3.52384 13.1846 5.98199 12.9148 8.81189C12.9136 8.82386 12.9075 8.83485 12.8978 8.84207C11.791 9.66627 10.7186 10.1665 9.66135 10.4982C9.65312 10.5007 9.64431 10.5006 9.63616 10.4978C9.62801 10.495 9.62092 10.4897 9.6159 10.4826C9.37163 10.1379 9.14969 9.77454 8.95525 9.39296C8.94409 9.37048 8.95428 9.34341 8.97725 9.33456C9.32973 9.19987 9.66491 9.03844 9.98731 8.84732C10.0127 8.83223 10.0143 8.79532 9.99086 8.7776C9.92244 8.72609 9.85466 8.67195 9.78979 8.61781C9.77766 8.60781 9.76132 8.60584 9.74757 8.61256C7.6545 9.59277 5.36165 9.59277 3.24383 8.61256C3.23008 8.60633 3.21374 8.60846 3.20194 8.6183C3.13723 8.67244 3.06929 8.72609 3.00151 8.7776C2.97805 8.79532 2.97999 8.83223 3.00555 8.84732C3.32795 9.03483 3.66313 9.19987 4.01512 9.33521C4.03793 9.34407 4.04877 9.37048 4.03745 9.39296C3.84721 9.77503 3.62527 10.1384 3.37648 10.4831C3.36564 10.497 3.34785 10.5034 3.33102 10.4982C2.27875 10.1665 1.20641 9.66627 0.0996163 8.84207C0.0903958 8.83485 0.0837634 8.82337 0.0827928 8.81139C-0.142707 6.36358 0.316866 3.88508 1.99453 1.34408C1.99857 1.33736 2.00472 1.33211 2.01183 1.32899C2.83732 0.94478 3.72168 0.662119 4.64601 0.500692C4.66283 0.498067 4.67965 0.505941 4.68839 0.521034C4.80259 0.726099 4.93314 0.989074 5.02146 1.20398C5.99577 1.05305 6.98528 1.05305 7.97997 1.20398C8.0683 0.993667 8.19431 0.726099 8.30803 0.521034C8.31208 0.513547 8.31836 0.507548 8.32597 0.503895C8.33358 0.500242 8.34214 0.499121 8.35041 0.500692C9.27522 0.662611 10.1596 0.945272 10.9844 1.32899C10.9917 1.33211 10.9977 1.33736 11.0012 1.34457ZM5.51678 5.99872C5.52698 5.27509 5.00674 4.6763 4.3537 4.6763C3.70599 4.6763 3.19077 5.26984 3.19077 5.99872C3.19077 6.72744 3.71618 7.32098 4.3537 7.32098C5.00156 7.32098 5.51678 6.72744 5.51678 5.99872ZM9.81681 5.99872C9.827 5.27509 9.30676 4.6763 8.65388 4.6763C8.00601 4.6763 7.4908 5.26984 7.4908 5.99872C7.4908 6.72744 8.01621 7.32098 8.65388 7.32098C9.30676 7.32098 9.81681 6.72744 9.81681 5.99872Z" fill="#0F1A1E"/>
</svg>
