<svg width="169" height="20" viewBox="0 0 169 20" fill="none" xmlns="http://www.w3.org/2000/svg">
<path d="M8.28881 0.871933C9.61271 0.688232 10.9752 0.754307 12.2634 1.12534C12.2977 1.13478 12.3649 1.15293 12.3992 1.16237C12.5715 1.22046 12.7452 1.27709 12.9153 1.34389C12.9468 1.35261 13.0089 1.37003 13.0404 1.37874C13.1834 1.43901 13.3285 1.4971 13.4707 1.55954C13.7881 1.70839 14.1027 1.86523 14.41 2.0344C15.0241 2.39455 15.6031 2.81568 16.125 3.30289C16.413 3.52943 16.6618 3.80026 16.8884 4.08779C17.1265 4.34918 17.3452 4.63018 17.5261 4.93659C17.0064 4.81606 16.4724 4.84655 15.9434 4.84801C15.6146 4.85236 15.2965 4.94603 14.9762 5.01283C14.8325 5.06293 14.6874 5.11085 14.5437 5.16023C14.4737 5.18419 14.4036 5.20742 14.3343 5.23066C14.2971 5.24881 14.222 5.28584 14.1849 5.30472C14.0412 5.37733 13.8975 5.44921 13.7531 5.51819C13.3871 5.72585 13.0583 5.99015 12.7216 6.24137C12.5457 6.1281 12.3699 6.01338 12.1862 5.91463C12.1154 5.88051 12.0453 5.84565 11.9753 5.81153C11.6915 5.70262 11.4048 5.60241 11.1125 5.52109C10.5842 5.39693 10.0395 5.42307 9.50191 5.43324C9.19738 5.45792 8.90144 5.54288 8.60764 5.62492C8.57404 5.63436 8.50684 5.65251 8.47325 5.66123C8.32956 5.72004 8.18659 5.77813 8.04577 5.84202C7.94998 5.89067 7.85347 5.93932 7.75768 5.98724C6.84268 6.48897 6.11497 7.3051 5.6303 8.23232C5.41799 8.67668 5.245 9.14792 5.19567 9.64238C4.57876 9.66417 3.96971 9.52403 3.35137 9.56832C3.44144 9.09636 3.47146 8.61206 3.61944 8.15172C3.64589 8.07766 3.67377 8.00432 3.70164 7.93099L3.7331 7.79739C4.06979 6.94278 4.56875 6.14626 5.23642 5.51819C5.59098 5.12392 6.02347 4.81243 6.47096 4.53651C6.70614 4.408 6.9399 4.27657 7.18652 4.17202C7.30376 4.11974 7.42242 4.07036 7.54251 4.02462C7.79914 3.93967 8.0572 3.85617 8.32241 3.80461C9.03368 3.62237 9.77284 3.68844 10.4984 3.69715C10.8237 3.77121 11.1525 3.82785 11.4735 3.92151C11.615 3.97234 11.7565 4.02171 11.8995 4.06964C12.1976 4.18363 12.4864 4.32086 12.7659 4.47625C13.0232 4.2969 13.2806 4.11901 13.5379 3.93894C13.2842 3.76468 13.0304 3.58751 12.7573 3.44592C12.5915 3.3646 12.4271 3.28183 12.2626 3.19905C12.0682 3.13008 11.8766 3.05311 11.6851 2.97614C11.6507 2.96743 11.5821 2.95146 11.5478 2.94274C11.4277 2.90499 11.3069 2.87159 11.1875 2.83383C10.6407 2.68643 10.0745 2.66393 9.51478 2.61455C9.05013 2.66828 8.5819 2.67554 8.12083 2.76195C7.99859 2.79825 7.87563 2.82947 7.75268 2.8636C7.61186 2.89845 7.47174 2.93839 7.33235 2.97905C7.1422 3.05964 6.94919 3.13298 6.75404 3.19978C6.6368 3.25787 6.51886 3.31595 6.40162 3.37404C5.01553 4.07835 3.89108 5.27204 3.23628 6.69663C3.19267 6.82007 3.14549 6.94278 3.09402 7.06404C2.9918 7.32325 2.90888 7.58973 2.83311 7.85838C2.6787 8.39641 2.63795 8.95623 2.55932 9.50806C1.94026 9.48192 1.32121 9.50297 0.702148 9.49426C0.751473 8.99398 0.816524 8.49516 0.903735 7.99997C0.973075 7.62893 1.06315 7.26081 1.19539 6.9072C1.20397 6.87525 1.22184 6.81136 1.23042 6.77868C1.31334 6.58482 1.38912 6.38659 1.4799 6.19563C1.58856 5.9749 1.69864 5.75417 1.80444 5.53126C2.14256 4.90246 2.57219 4.3274 3.04684 3.79808C3.35065 3.38203 3.76312 3.07271 4.14128 2.73218C4.61593 2.34808 5.13205 2.01553 5.67748 1.74469C5.93554 1.61182 6.20003 1.49419 6.4681 1.3831C6.58962 1.33663 6.71186 1.28944 6.8341 1.24151C6.90487 1.21683 6.97564 1.19069 7.04641 1.16455C7.07929 1.15438 7.14577 1.13405 7.17866 1.12389C7.27445 1.09557 7.37024 1.07088 7.46746 1.0462C7.73838 0.975038 8.01574 0.932925 8.28881 0.871933Z" fill="white"/>
<path d="M9.18477 6.34672C9.73306 6.18698 10.3057 6.22691 10.8682 6.22837C11.1971 6.24071 11.5159 6.33292 11.8326 6.41788C11.9055 6.44547 11.9784 6.47379 12.052 6.50283C12.0849 6.51009 12.15 6.52389 12.1828 6.53115C12.2214 6.55075 12.2979 6.59069 12.3365 6.61102C13.3552 7.04159 14.218 7.82722 14.7506 8.80817C14.8485 9.01147 14.9486 9.21333 15.0408 9.41954C14.3267 9.41518 13.6097 9.44568 12.897 9.40647C12.5224 8.80889 12.0006 8.29119 11.33 8.05594C11.2971 8.0465 11.2299 8.02835 11.1971 8.01891C10.5587 7.80181 9.87031 7.89692 9.26055 8.15977C8.47708 8.52717 7.92879 9.28376 7.73006 10.1267C7.70647 10.6597 7.6743 11.2086 7.87875 11.7133C8.16612 12.435 8.7573 12.9752 9.40209 13.3687C9.47357 13.4014 9.54577 13.4348 9.61869 13.4682C9.68874 13.4936 9.7588 13.5198 9.82957 13.5474C10.3879 13.7107 10.9855 13.6969 11.5466 13.551C11.5895 13.5285 11.6753 13.4842 11.7182 13.4617C11.7139 13.9961 11.7904 14.5261 11.799 15.0598C11.7125 15.0852 11.6267 15.1121 11.5416 15.1397C10.7446 15.3394 9.89033 15.2849 9.11043 15.0351C9.07755 15.0264 9.01107 15.0083 8.97818 14.9988C8.78518 14.9189 8.59145 14.8391 8.40273 14.7476C7.5585 14.3344 6.84508 13.641 6.41046 12.7973C6.29322 12.5599 6.18814 12.3166 6.09592 12.0683C5.96439 11.5847 5.87718 11.0852 5.87646 10.5835C5.91936 10.2059 5.95581 9.82615 6.05446 9.45802L6.09735 9.32151C6.12166 9.24818 6.14596 9.17484 6.16884 9.10078C6.32539 8.75298 6.48123 8.40156 6.7014 8.08861C6.8987 7.79091 7.16533 7.55203 7.4141 7.30008C7.79654 6.92251 8.28192 6.6829 8.76301 6.46289C8.90312 6.42369 9.04324 6.38302 9.18477 6.34672Z" fill="white"/>
<path d="M0 9.71216C0.387447 9.70563 0.774179 9.72523 1.15877 9.7717C2.14168 9.82688 3.13031 9.72378 4.10965 9.84358C4.46279 9.8719 4.81735 9.8552 5.1712 9.85883C5.17334 10.3671 5.17549 10.8754 5.16763 11.3836H0V9.71216Z" fill="white"/>
<path d="M3.4895 11.6016C4.04279 11.6016 4.5968 11.6016 5.15081 11.6008C5.18297 11.7097 5.21371 11.8194 5.24231 11.929C5.28949 12.0742 5.33524 12.2202 5.38027 12.3661C5.43531 12.5106 5.49107 12.6544 5.55326 12.796C5.62618 12.9412 5.69838 13.0871 5.76843 13.2345C6.08297 13.7791 6.46827 14.2961 6.9708 14.6758C7.34824 14.983 7.75785 15.2494 8.18819 15.4753C8.51845 15.627 8.86157 15.7519 9.21399 15.8397C10.4064 16.0961 11.6774 15.9421 12.7918 15.4462C13.1113 15.2799 13.4752 15.1202 13.6296 14.7651C13.937 14.2474 13.7761 13.6252 13.606 13.0908L13.5331 12.8751C13.4201 12.5346 13.2886 12.1999 13.1993 11.8521C13.6418 12.3705 14.0585 12.9122 14.526 13.4088C14.8856 13.8604 15.2938 14.2721 15.7377 14.6388C16.2724 15.1601 16.8514 15.6314 17.4211 16.1135C17.023 16.0794 16.6277 16.0046 16.2266 16.0314C15.8671 16.0656 15.5089 15.9131 15.1544 16.0162C14.7969 16.0779 14.4974 16.3015 14.2186 16.523C13.9448 16.7466 13.6403 16.9253 13.3387 17.1053C13.1206 17.2033 12.8983 17.2927 12.681 17.3929C12.6481 17.4023 12.5831 17.4204 12.5502 17.4292C12.3851 17.4872 12.2185 17.5388 12.0498 17.5838C10.9754 17.8496 9.84806 17.9469 8.75649 17.729C8.3669 17.6492 7.98589 17.5337 7.61345 17.3914C6.17161 16.8301 4.97281 15.7018 4.2358 14.3317C4.12214 14.0891 3.9999 13.8495 3.90769 13.5976C3.88338 13.5257 3.86051 13.4538 3.83763 13.3827C3.63962 12.8105 3.49737 12.2107 3.4895 11.6016Z" fill="white"/>
<path d="M0.71327 11.6742C1.30516 11.7054 1.89563 11.5973 2.48609 11.6641C2.54828 12.2202 2.65479 12.7713 2.80777 13.3094C2.8335 13.3813 2.85852 13.4539 2.88354 13.5265C2.90642 13.5991 2.92858 13.671 2.95002 13.7443C3.13946 14.2439 3.36035 14.7303 3.62555 15.1936C3.98798 15.818 4.43333 16.3873 4.91299 16.9217C5.26827 17.2825 5.67144 17.5911 6.05818 17.9157C5.49917 18.3724 4.91013 18.7906 4.3354 19.227C3.38322 18.4741 2.6312 17.4859 2.02001 16.4359C1.85774 16.1215 1.69404 15.8071 1.55107 15.4826C1.4996 15.3649 1.45099 15.2451 1.40524 15.1253C1.04138 14.2112 0.839797 13.2382 0.721848 12.2616C0.70898 12.0663 0.713984 11.8703 0.71327 11.6742Z" fill="white"/>
<path d="M31.276 6.3443C32.7608 5.71059 34.4508 6.07498 35.9557 6.4552C35.9678 7.13248 35.9759 7.80975 35.9879 8.49098C34.9498 8.15037 33.8472 7.31467 32.7246 7.76619C30.8012 8.37217 30.765 11.6358 32.7125 12.2378C33.8432 12.6972 34.9578 11.8536 36 11.513C35.9759 12.1903 35.9557 12.8636 35.9276 13.5448C34.2416 13.9805 32.294 14.3528 30.7046 13.422C28.2501 11.8457 28.4513 7.42953 31.276 6.3443Z" fill="white"/>
<path d="M38 6.004C38.8179 6 39.6357 6 40.4536 6C40.9856 6.96752 41.5295 7.93503 42.0774 8.89855C42.5856 7.93103 43.0898 6.96352 43.602 6C44.4 6 45.198 6.004 46 6.004C45.194 7.33534 44.3643 8.65467 43.594 10.01C42.804 11.1894 43.1375 12.6687 43.066 14H40.9022C40.8427 12.6887 41.1127 11.2454 40.3821 10.07C39.6199 8.69465 38.794 7.35932 38 6.004Z" fill="white"/>
<path d="M48 6.06644C49.9756 6.28708 52.3355 5.46362 54.03 6.70472C54.9806 7.63457 54.2821 8.80081 53.6539 9.67549C53.9143 9.77793 54.435 9.99071 54.6954 10.0931C55.0137 11.1412 55.3278 12.469 54.2739 13.2491C52.4967 14.5414 50.0624 13.7258 48 13.9386V6.06644ZM50.1863 7.52424C50.1822 8.12707 50.1822 8.73384 50.1863 9.3406C50.8724 9.21058 51.6081 9.19088 52.2322 8.85597C52.4843 7.55971 51.1245 7.6582 50.1863 7.52424ZM50.1822 10.3098C50.1781 11.023 50.1781 11.7401 50.1822 12.4572C51.0915 12.3193 52.3231 12.5281 52.7777 11.5352C52.8025 10.1522 51.1493 10.4714 50.1822 10.3098Z" fill="white"/>
<path d="M58 6H64V7.6H60.2158V8.8H63.7772C63.7729 9.332 63.7729 9.864 63.7729 10.4H60.2158V12.4H64V14H58V6Z" fill="white"/>
<path d="M67 6.05446C69.3119 6.20932 72.0621 5.38735 73.8565 7.20995C73.9776 8.61163 73.6521 9.95377 72.4418 10.8512C73.2723 11.9074 74.1445 12.9319 75 13.9722C74.0819 13.9841 73.1638 13.9921 72.2457 14C71.3985 12.8644 70.5681 11.6572 69.2869 10.9226C69.2118 11.9431 69.1909 12.9676 69.1826 13.9921C68.4564 13.9921 67.7261 13.9881 67 13.9921V6.05446ZM69.2034 7.53953C69.2034 8.27412 69.2034 9.01269 69.2118 9.75126C70.109 9.5686 71.5237 9.64404 71.6531 8.48854C71.3192 7.47599 70.0589 7.71027 69.2034 7.53953Z" fill="white"/>
<path d="M84.3025 6.33294C85.7838 5.715 87.4583 6.07546 88.9597 6.46365C88.9678 7.13704 88.9758 7.81043 88.9839 8.49175C87.9414 8.14713 86.8223 7.29945 85.6953 7.77875C83.7954 8.40461 83.7712 11.6369 85.7073 12.235C86.8344 12.7024 87.9534 11.8548 89 11.5141C88.9758 12.1875 88.9557 12.8648 88.9316 13.5422C87.1685 14.0057 85.0794 14.3859 83.4774 13.2768C81.2635 11.5537 81.5372 7.37868 84.3025 6.33294Z" fill="white"/>
<path d="M93.8333 6C94.5969 6.01593 95.3682 6.00001 96.1318 6.09558C97.2752 8.64411 98.0349 11.3599 99 13.9881C98.2907 13.992 97.5853 13.996 96.8798 14C96.6977 13.4664 96.5155 12.9288 96.345 12.3952C95.4186 12.3992 94.4961 12.4072 93.5775 12.4271C93.4225 12.9487 93.2713 13.4744 93.1163 14C92.4108 13.996 91.7054 13.996 91 13.996C91.9264 11.324 92.876 8.66003 93.8333 6ZM94.1202 10.8143C94.6783 10.8104 95.2403 10.8064 95.8023 10.8064C95.5426 9.99801 95.2752 9.18965 95.0078 8.38527C94.7015 9.18965 94.4147 10.002 94.1202 10.8143Z" fill="white"/>
<path d="M102 6.03941C103.53 6.11906 105.115 5.80445 106.609 6.22259C108.409 6.80401 108.434 9.89426 106.846 10.7664C105.99 11.4155 104.893 11.1606 103.92 11.2522V14C103.279 14 102.638 13.996 102 14V6.03941ZM103.931 7.49692C103.924 8.24957 103.924 8.99824 103.931 9.75488C104.773 9.57568 105.935 9.57568 106.135 8.41684C105.603 7.67215 104.703 7.65223 103.931 7.49692Z" fill="white"/>
<path d="M111 6H115.987C115.987 6.528 115.992 7.056 116 7.584C115.525 7.592 115.054 7.604 114.588 7.616C114.592 9.204 114.592 10.792 114.584 12.384C115.054 12.392 115.525 12.404 116 12.42C115.992 12.944 115.987 13.472 115.987 14H111V12.4H112.272V7.6H111V6Z" fill="white"/>
<path d="M118 6H125V7.6H122.636V14C121.916 14 121.199 13.996 120.482 14C120.482 11.868 120.482 9.736 120.486 7.604C119.654 7.6 118.827 7.596 118 7.596V6Z" fill="white"/>
<path d="M129.188 6.00397C130.08 6.00397 130.968 6 131.864 6C132.912 8.63893 133.982 11.2699 135 13.9208C134.204 13.9247 133.412 13.9287 132.621 13.9326C132.416 13.4017 132.212 12.8668 132.02 12.3358C131.015 12.3437 130.011 12.3477 129.01 12.3556C128.814 12.847 128.601 13.3304 128.366 13.8058C127.588 13.9445 126.787 13.9326 126 14C127.035 11.3254 128.11 8.66271 129.188 6.00397ZM130.511 8.33383C130.176 9.13819 129.858 9.95048 129.532 10.7628C130.159 10.7588 130.785 10.7548 131.416 10.7548C131.116 9.94651 130.815 9.13819 130.511 8.33383Z" fill="white"/>
<path d="M137 6H139.185C139.181 8.132 139.185 10.264 139.181 12.4H143C142.996 12.932 142.996 13.464 143 14H137V6Z" fill="white"/>
<path d="M145.003 6H149.987C149.987 6.528 149.992 7.056 150 7.584C149.525 7.592 149.055 7.604 148.584 7.616C148.593 9.204 148.593 10.796 148.589 12.388C149.055 12.396 149.525 12.404 150 12.416C149.992 12.94 149.987 13.468 149.987 14H145.003C144.999 13.464 144.999 12.932 145.003 12.4H146.275V7.6H145.003C144.999 7.064 145.003 6.532 145.003 6Z" fill="white"/>
<path d="M154.595 6.41003C156.221 5.68682 158.097 6.05436 159.755 6.48907C159.755 7.15695 159.751 7.82483 159.751 8.49271C158.267 7.93153 156.366 6.99097 155.02 8.33463C156.285 8.94718 157.737 9.06969 159.003 9.68224C160.455 10.3699 160.244 12.7134 158.869 13.3773C157.086 14.4008 154.886 13.9661 153.006 13.4642C153.002 12.8082 152.998 12.1522 153.002 11.4962C154.579 11.9507 156.427 12.9702 157.976 11.8835C156.981 10.441 154.413 11.2077 153.438 9.5953C152.565 8.45319 153.382 6.91588 154.595 6.41003Z" fill="white"/>
<path d="M162.002 6H169C168.996 6.532 168.996 7.064 169 7.6H166.637V14C165.916 14 165.2 13.996 164.483 14C164.483 11.868 164.479 9.74 164.491 7.608C163.66 7.6 162.829 7.596 162.002 7.592C161.998 7.06 162.002 6.532 162.002 6Z" fill="white"/>
</svg>
