<svg width="17" height="9" viewBox="0 0 17 9" fill="none" xmlns="http://www.w3.org/2000/svg">
<path d="M9.59248 4.5C9.59248 6.98344 7.45016 9 4.79624 9C2.14232 9 0 6.98344 0 4.5C0 2.01656 2.14232 0 4.79624 0C7.45016 0 9.59248 2.01656 9.59248 4.5ZM14.847 4.5C14.847 6.83444 13.7705 8.73179 12.4489 8.73179C11.1273 8.73179 10.0508 6.83444 10.0508 4.5C10.0508 2.16556 11.1273 0.26821 12.4489 0.26821C13.7705 0.26821 14.847 2.15563 14.847 4.5ZM17 4.5C17 6.59603 16.627 8.2947 16.158 8.2947C15.689 8.2947 15.316 6.59603 15.316 4.5C15.316 2.40397 15.689 0.705296 16.158 0.705296C16.627 0.705296 17 2.40397 17 4.5Z" fill="#0F1A1E"/>
</svg>
