<svg width="12" height="10" viewBox="0 0 12 10" fill="none" xmlns="http://www.w3.org/2000/svg">
<path d="M0.689718 4.35502C0.689718 4.35502 5.66532 2.15984 7.39094 1.38686C8.05246 1.07769 10.2958 0.088274 10.2958 0.088274C10.2958 0.088274 11.3312 -0.344558 11.2449 0.706649C11.2161 1.13952 10.986 2.6545 10.756 4.29319C10.4108 6.61209 10.0369 9.14738 10.0369 9.14738C10.0369 9.14738 9.97941 9.85852 9.49049 9.98219C9.00157 10.1059 8.19624 9.54936 8.05246 9.42565C7.93739 9.33292 5.8954 7.94157 5.14762 7.26136C4.94629 7.07586 4.71622 6.70486 5.17636 6.27198C6.21177 5.25167 7.44846 3.98403 8.19624 3.18015C8.54138 2.80911 8.88649 1.9434 7.44846 2.99461C5.40647 4.50963 3.39322 5.93188 3.39322 5.93188C3.39322 5.93188 2.93304 6.24104 2.07023 5.96277C1.20738 5.68454 0.200756 5.3135 0.200756 5.3135C0.200756 5.3135 -0.489461 4.84973 0.689718 4.35502Z" fill="#0F1A1E"/>
</svg>
