<svg width="13" height="10" viewBox="0 0 13 10" fill="none" xmlns="http://www.w3.org/2000/svg">
<path d="M12.6103 1.20128C12.2006 1.37016 11.7698 1.48775 11.3287 1.55116C11.5349 1.5173 11.8384 1.16177 11.9592 1.01787C12.1427 0.800797 12.2826 0.552997 12.3717 0.28705C12.3717 0.267299 12.3923 0.239082 12.3717 0.224973C12.3613 0.21954 12.3496 0.216693 12.3378 0.216693C12.326 0.216693 12.3143 0.21954 12.3039 0.224973C11.8249 0.473401 11.3151 0.663007 10.7866 0.78931C10.7682 0.794699 10.7486 0.795183 10.7299 0.790709C10.7112 0.786235 10.6941 0.776972 10.6805 0.763915C10.6394 0.716998 10.5951 0.672698 10.5479 0.631296C10.3324 0.44632 10.0878 0.294925 9.82317 0.182648C9.46595 0.0422911 9.0801 -0.0184944 8.69475 0.00488207C8.32085 0.0274972 7.9558 0.123544 7.62232 0.28705C7.29392 0.459433 7.00529 0.693621 6.77379 0.975541C6.53028 1.26571 6.35447 1.60246 6.2582 1.96313C6.17881 2.3062 6.1698 2.66079 6.23168 3.00715C6.23168 3.06641 6.23168 3.07487 6.17865 3.06641C4.07797 2.77013 2.35441 2.05625 0.946095 0.524072C0.884223 0.456351 0.851815 0.456351 0.801728 0.524072C0.188906 1.41572 0.486479 2.82656 1.25251 3.52352C1.35562 3.61664 1.46169 3.70693 1.57365 3.79158C1.22243 3.7677 0.879788 3.67655 0.566027 3.52352C0.507102 3.48684 0.474693 3.50659 0.471747 3.57431C0.463395 3.6682 0.463395 3.76259 0.471747 3.85648C0.533223 4.30642 0.718372 4.73266 1.00826 5.0916C1.29815 5.45053 1.68238 5.7293 2.12165 5.89938C2.22874 5.94331 2.34032 5.9764 2.45458 5.99814C2.12944 6.05944 1.79596 6.06898 1.46758 6.02635C1.39687 6.01224 1.37036 6.04893 1.39687 6.11382C1.82997 7.2425 2.76983 7.58674 3.45925 7.77862C3.55353 7.79273 3.64781 7.79273 3.75388 7.8153C3.75388 7.8153 3.75388 7.8153 3.7362 7.83223C3.53291 8.18776 2.7109 8.4276 2.33378 8.55176C1.64544 8.78855 0.911539 8.87906 0.183014 8.817C0.0681098 8.80007 0.0415935 8.80289 0.0121309 8.817C-0.0173317 8.83111 0.0121309 8.86214 0.0445397 8.89036C0.191853 8.98348 0.339166 9.0653 0.492371 9.14431C0.948465 9.38256 1.43065 9.57182 1.93014 9.70865C4.51696 10.3915 7.42786 9.88924 9.36945 8.04103C10.8956 6.59069 11.4318 4.59012 11.4318 2.58672C11.4318 2.51054 11.5291 2.46539 11.585 2.42589C11.9711 2.13776 12.3115 1.79749 12.5956 1.41572C12.6448 1.35882 12.67 1.28636 12.6663 1.21256C12.6663 1.17024 12.6663 1.1787 12.6103 1.20128Z" fill="#0F1A1E"/>
</svg>
